<?xml version="1.0" encoding="UTF-8"?><svg id="a" xmlns="http://www.w3.org/2000/svg" viewBox="0 0 50 50"><path d="M30.01,14.14c-.62-.55-1.36-.96-2.22-1.24-.86-.28-1.81-.41-2.83-.41-1.49,0-2.84,.32-4.02,.96-1.19,.64-2.22,1.46-3.09,2.46l2.51,2.32c.58-.63,1.19-1.12,1.85-1.49,.65-.37,1.39-.55,2.2-.55,1,0,1.78,.29,2.34,.86,.56,.58,.84,1.34,.84,2.28,0,.6-.15,1.16-.43,1.69-.29,.53-.65,1.06-1.08,1.59-.43,.54-.89,1.09-1.37,1.65-.48,.56-.92,1.17-1.3,1.82-.38,.66-.67,1.38-.86,2.16-.2,.78-.23,1.65-.1,2.59h3.97c-.1-.84-.03-1.6,.22-2.28,.25-.68,.58-1.32,.98-1.93,.41-.6,.86-1.18,1.38-1.73,.51-.55,.99-1.12,1.43-1.73,.44-.6,.82-1.24,1.12-1.91,.3-.67,.45-1.42,.45-2.26,0-1.07-.17-2.02-.53-2.83-.35-.81-.84-1.49-1.45-2.04Z"/><path d="M24.45,33.63c-.84,0-1.53,.29-2.08,.86-.55,.58-.83,1.31-.83,2.2s.28,1.62,.83,2.2c.55,.58,1.24,.86,2.08,.86s1.54-.29,2.1-.86c.57-.58,.84-1.31,.84-2.2s-.28-1.63-.84-2.2c-.56-.58-1.26-.86-2.1-.86Z"/><path d="M25,0C11.22,0,0,11.22,0,25s11.22,25,25,25,25-11.22,25-25S38.78,0,25,0Zm0,46.43c-11.82,0-21.43-9.61-21.43-21.43S13.18,3.57,25,3.57s21.43,9.61,21.43,21.43-9.61,21.43-21.43,21.43Z"/></svg>