<?xml version="1.0" encoding="UTF-8"?><svg id="a" xmlns="http://www.w3.org/2000/svg" viewBox="0 0 283.46 85.04"><defs><style>.b{fill:#114d8c;}</style></defs><g><path class="b" d="M68.16,61.32h3.75v-17.16c0-2.36,.75-4.45,2.04-6.06,1.45-1.72,3.7-2.68,6.33-2.89v-3.97c-3.16,.21-6.49,.86-8.26,4.99h-.11v-4.24h-3.75v29.33Z"/><path class="b" d="M178.41,52.69c-1.18,2.25-4.24,5.95-10.35,5.95-7.02,0-12.12-5.47-12.12-12.07,0-7.67,6.38-11.96,12.12-11.96,3.7,0,7.99,1.77,10.35,6.22h4.13c-2.84-7.02-9.44-9.6-14.58-9.6-8.74,0-15.77,6.97-15.77,15.44s6.6,15.34,15.77,15.34,12.71-5.68,14.58-9.33h-4.13Z"/><path class="b" d="M210.5,52.69c-1.18,2.25-4.24,5.95-10.35,5.95-7.03,0-12.12-5.47-12.12-12.07,0-7.67,6.38-11.96,12.12-11.96,3.7,0,7.99,1.77,10.35,6.22h4.13c-2.84-7.02-9.44-9.6-14.58-9.6-8.74,0-15.76,6.97-15.76,15.44s6.59,15.34,15.76,15.34,12.71-5.68,14.58-9.33h-4.13Z"/><path class="b" d="M246.94,48.02c.16-2.84-.27-6.11-2.25-9.28-2.09-3.65-6.65-7.45-13.08-7.51-8.53,.16-15.23,7.13-15.23,15.44s7.08,15.33,15.28,15.33c6.76,0,12.39-4.45,14.42-10.3h-3.97c-1.34,3.65-5.15,6.81-10.51,6.92-5.74,0-11.1-4.88-11.37-10.62h26.7Zm-26.7-3.38c1.07-6.92,6.81-10.03,11.42-10.03s10.29,3.11,11.48,10.03h-22.9Z"/></g><polygon class="b" points="152.25 61.32 135.2 21.64 130.75 21.64 113.81 61.32 117.94 61.32 133 26.14 147.91 61.32 152.25 61.32"/><path class="b" d="M61.08,31.99h-3.75v15.5c0,5.15-1.34,7.08-3.06,8.79-1.88,1.88-4.13,2.36-6.22,2.36s-4.77-.48-6.81-2.79c-1.29-1.61-2.09-4.02-2.09-7.72V31.99h-3.75v16.19c0,3.11,.48,6.86,2.57,9.44,1.29,1.61,4.29,4.4,10.08,4.4,5.47,0,8.31-3.06,9.38-5.25h.11v4.56h3.54V31.99Z"/><polygon class="b" points="8.69 61.32 30.41 61.32 30.41 57.73 12.66 57.73 12.66 43.09 29.82 43.09 29.82 39.5 12.66 39.5 12.66 25.23 30.41 25.23 30.41 21.64 8.69 21.64 8.69 61.32"/><g><path class="b" d="M250.36,59.21l2.8,2.8c3.93-1.99,6.08-5.44,6.95-8.48,1.27-4.42,.11-9.14-2.56-12.37-1.92-2.44-2.66-5.83-1.81-8.8,.03-.12,.09-.25,.14-.38h-3.55c-.8,3.35-.45,7.27,2.18,11.05,2.99,3.81,2.96,6.86,2.27,9.62-.78,2.71-2.8,5.41-6.42,6.55"/><path class="b" d="M264.5,59.21l2.8,2.8c3.93-1.99,6.08-5.44,6.95-8.48,1.27-4.42,.11-9.14-2.56-12.37-1.92-2.44-2.66-5.83-1.8-8.8,.03-.12,.09-.25,.13-.38h-3.55c-.8,3.35-.45,7.27,2.18,11.05,2.99,3.81,2.96,6.86,2.27,9.62-.78,2.71-2.8,5.41-6.42,6.55"/><path class="b" d="M97.69,34.26l.05,.03c.08,.06,.19,.06,.27,0,.08-.06,.11-.16,.09-.26l-.02-.06h0l-.44-1.35,1.2-.87c.08-.06,.11-.16,.08-.26-.03-.1-.12-.16-.22-.16h-1.48l-.46-1.41c-.03-.09-.12-.16-.22-.16s-.19,.06-.22,.16l-.02,.06-.44,1.35h-1.48c-.1,0-.19,.07-.22,.16-.03,.09,0,.2,.08,.26l.05,.03h0l1.15,.84-.46,1.41c-.03,.1,0,.2,.08,.26,.08,.06,.19,.06,.27,0l.05-.04h0l1.14-.83,1.15,.84Z"/><path class="b" d="M95.38,58.91l-.05-.03c-.08-.06-.19-.06-.27,0-.08,.06-.11,.16-.09,.26l.02,.06h0l.44,1.35-1.2,.87c-.08,.06-.11,.16-.08,.26,.03,.09,.12,.16,.22,.16h1.48l.46,1.41c.03,.09,.12,.16,.22,.16s.19-.06,.22-.16l.02-.06,.44-1.35h1.48c.1,0,.19-.07,.22-.16,.03-.09,0-.2-.08-.26l-.05-.03h0l-1.15-.84,.46-1.41c.03-.09,0-.2-.09-.26-.08-.06-.19-.06-.27,0l-.05,.04h0l-1.14,.83-1.15-.84Z"/><path class="b" d="M85.63,51.86v-.06c.01-.1-.04-.19-.13-.23-.09-.04-.2-.02-.26,.05l-.04,.05h0l-.95,1.06-1.36-.6c-.09-.04-.2-.02-.26,.06-.07,.08-.08,.18-.03,.27l.03,.05,.71,1.23-.99,1.1c-.07,.07-.08,.18-.03,.27,.05,.09,.15,.13,.25,.11h.06l1.39-.31,.74,1.28c.05,.09,.15,.13,.25,.11,.1-.02,.17-.1,.18-.2v-.06h0l.15-1.42,1.45-.31c.1-.02,.17-.1,.18-.2,.01-.1-.04-.19-.13-.23l-.06-.03h0l-1.29-.57,.15-1.42Z"/><path class="b" d="M89.52,56.67l-.02-.05c-.04-.09-.14-.14-.24-.13-.1,.01-.18,.08-.2,.18v.06h-.02l-.29,1.39-1.48,.15c-.1,.01-.18,.08-.2,.18-.02,.1,.02,.2,.11,.25l.05,.03,1.23,.71-.31,1.45c-.02,.1,.02,.2,.11,.25,.09,.05,.19,.04,.27-.03l.05-.04,1.05-.95,1.28,.74c.09,.05,.2,.04,.27-.03,.08-.07,.1-.17,.06-.26l-.02-.05h0l-.58-1.3,1.1-.99c.07-.07,.1-.17,.06-.26-.04-.09-.14-.15-.23-.14h-.07l-1.41,.16-.58-1.31Z"/><path class="b" d="M101.81,57.65h-.06c-.1-.01-.19,.04-.23,.13-.04,.09-.02,.2,.06,.26l.05,.04h0l1.06,.95-.6,1.36c-.04,.09-.02,.2,.06,.26,.07,.07,.18,.08,.27,.03l.05-.03,1.23-.71,1.1,.99c.07,.07,.18,.08,.27,.03,.09-.05,.13-.15,.11-.25v-.06l-.31-1.39,1.28-.74c.09-.05,.13-.15,.11-.25-.02-.1-.1-.17-.2-.18h-.06l-1.42-.15-.31-1.45c-.02-.1-.1-.17-.2-.18-.1-.01-.2,.04-.24,.13l-.03,.06h0l-.57,1.29-1.42-.15Z"/><path class="b" d="M106.51,53.71l-.05,.03c-.09,.04-.14,.14-.13,.23,.01,.1,.08,.18,.18,.2h.06l1.39,.31,.15,1.48c.01,.1,.08,.18,.18,.2,.1,.02,.2-.02,.25-.11l.03-.05,.71-1.23,1.45,.31c.1,.02,.2-.02,.25-.11,.05-.09,.04-.19-.03-.27l-.04-.05-.95-1.05,.74-1.28c.05-.09,.04-.2-.03-.27-.07-.07-.17-.1-.26-.06l-.05,.02h0l-1.3,.58-.99-1.1c-.07-.07-.17-.09-.26-.05-.09,.04-.15,.14-.14,.23v.07h0l.15,1.41-1.31,.58Z"/><path class="b" d="M108.7,47.69l-.03,.05c-.06,.08-.06,.19,0,.27,.06,.08,.16,.12,.26,.08l.06-.02h0l1.35-.44,.87,1.2c.06,.08,.16,.11,.26,.08,.09-.03,.16-.12,.16-.22v-1.48l1.41-.46c.09-.03,.16-.12,.16-.22s-.06-.19-.16-.22l-.06-.02-1.35-.44v-1.48c0-.1-.06-.19-.16-.22-.09-.03-.2,0-.26,.08l-.03,.05h0l-.84,1.15-1.41-.46c-.1-.03-.2,0-.26,.08-.06,.08-.06,.19,0,.27l.04,.05h0l.83,1.15-.84,1.15Z"/><path class="b" d="M107.49,41.31v.06c-.01,.1,.04,.19,.13,.23,.09,.04,.2,.02,.26-.06l.04-.05h0l.95-1.06,1.35,.6c.09,.04,.2,.02,.26-.06,.07-.07,.08-.18,.03-.27l-.03-.05-.71-1.23,.99-1.1c.07-.07,.08-.18,.03-.27-.05-.09-.15-.13-.25-.11h-.06l-1.39,.31-.74-1.28c-.05-.09-.15-.13-.25-.11-.1,.02-.17,.1-.18,.2v.06h0l-.15,1.42-1.45,.31c-.1,.02-.17,.1-.18,.2-.01,.1,.04,.2,.13,.24l.06,.03h0l1.29,.58-.15,1.42Z"/><path class="b" d="M103.66,36.53l.02,.05c.04,.09,.14,.14,.24,.13,.1-.01,.18-.08,.2-.18v-.06h.02l.29-1.39,1.48-.15c.1-.01,.18-.08,.2-.18,.02-.1-.02-.2-.11-.25l-.05-.03-1.23-.71,.31-1.45c.02-.1-.02-.2-.11-.25-.09-.05-.19-.04-.27,.03l-.05,.04-1.05,.95-1.28-.74c-.09-.05-.2-.04-.27,.03-.08,.07-.1,.17-.06,.26l.02,.05h0l.58,1.3-1.1,.99c-.07,.07-.1,.17-.06,.26,.04,.09,.14,.15,.23,.14h.07l1.41-.16,.58,1.31Z"/><path class="b" d="M91.37,35.55h.06c.09,.01,.19-.04,.23-.13,.04-.09,.02-.2-.06-.26l-.04-.04h0l-1.06-.95,.6-1.36c.04-.09,.02-.2-.06-.26-.07-.07-.18-.08-.27-.03l-.06,.03-1.23,.71-1.1-.99c-.07-.07-.18-.08-.27-.03-.09,.05-.13,.15-.11,.25v.06l.31,1.39-1.28,.74c-.09,.05-.13,.15-.11,.25,.02,.1,.1,.17,.2,.18h.06l1.42,.15,.31,1.45c.02,.1,.1,.17,.2,.18,.1,.01,.2-.05,.23-.13l.03-.06h0l.57-1.29,1.42,.15Z"/><path class="b" d="M86.62,39.46l.05-.02c.09-.04,.14-.14,.13-.24,0-.1-.08-.18-.18-.2h-.06v-.02l-1.39-.29-.15-1.48c-.01-.1-.08-.18-.18-.2-.1-.02-.2,.02-.25,.11l-.03,.05-.71,1.23-1.45-.31c-.1-.02-.2,.02-.25,.11-.05,.09-.04,.19,.03,.27l.04,.05,.95,1.05-.74,1.28c-.05,.09-.04,.2,.03,.27,.07,.07,.17,.1,.26,.06l.05-.02h0l1.3-.58,.99,1.1c.07,.07,.17,.1,.26,.06,.09-.04,.15-.14,.14-.23v-.07h0l-.15-1.41,1.31-.58Z"/><path class="b" d="M84.36,45.39l.03-.05c.06-.08,.06-.19,0-.27-.06-.08-.16-.12-.26-.08l-.06,.02h0l-1.35,.44-.87-1.2c-.06-.08-.16-.11-.26-.08-.09,.03-.16,.12-.16,.22v1.48l-1.41,.46c-.09,.03-.16,.12-.16,.22s.06,.19,.16,.22l.06,.02,1.35,.44v1.48c0,.1,.06,.19,.16,.22,.09,.03,.2,0,.26-.08l.03-.05h0l.84-1.15,1.41,.46c.1,.03,.2,0,.26-.08,.06-.08,.06-.19,0-.27l-.04-.06h0l-.84-1.14,.84-1.15Z"/></g></svg>