<?xml version="1.0" encoding="UTF-8"?><svg id="a" xmlns="http://www.w3.org/2000/svg" viewBox="0 0 50 50"><path d="M40.91,0H13.48c-1.26,0-2.28,1.02-2.28,2.28s1.02,2.28,2.28,2.28h27.42c1.26,0,2.28,1.02,2.28,2.28V43.16c0,1.26-1.02,2.28-2.28,2.28H13.48c-1.26,0-2.28,1.02-2.28,2.28s1.02,2.28,2.28,2.28h27.42c3.76,0,6.81-3.05,6.82-6.82V6.82c0-3.76-3.05-6.81-6.82-6.82Z"/><path d="M21.12,32.47c-.88,.89-.88,2.32,0,3.21,.43,.43,1,.67,1.61,.67,.6,0,1.18-.24,1.61-.67l9.09-9.09c.21-.21,.38-.46,.49-.74,.23-.56,.23-1.18,0-1.73-.11-.28-.28-.53-.49-.74l-9.09-9.09c-.89-.88-2.32-.88-3.21,0-.88,.89-.88,2.32,0,3.21l5.21,5.21H4.56c-1.26,0-2.28,1.02-2.28,2.28s1.02,2.28,2.28,2.28H26.33l-5.21,5.19Z"/></svg>